<?xml version="1.0" standalone="yes"?>
<svg xmlns="http://www.w3.org/2000/svg" width="576" height="195">
<path style="fill:#ffffff; stroke:none;" d="M0 0L0 139C131.247 139 262.669 138 394 138L515 138C533.918 138 556.588 134.616 575 139C564.84 156.853 560 174.736 560 195L576 195L576 129L10 129L10 0L0 0z"/>
<path style="fill:#010101; stroke:none;" d="M10 0L10 2L31 2C30.9177 8.94511 26.8691 11.224 23.8248 17.0008C19.9744 24.3074 21.0836 35.5095 10 33L10 129L19 129L19 125L38 125L38 124C33.2251 122.589 27.5971 124.24 23.0594 122.397C19.2842 120.863 18.6508 116.385 22.2292 114.179C27.2788 111.066 40.1015 111.744 43 117L25 117L25 119C32.7244 119 45.781 117.395 41 129L49 129C47.826 127.133 46.2099 125.158 45.6289 122.995C40.9752 105.673 84.4134 112.633 67 128L67 129L78 129L78 128C75.7942 126.251 68.7512 114.207 76 114.207C79.8222 114.207 78.5606 121.355 80.6034 123.397C85.1453 127.935 92.3107 122.309 96 129L102 129L102 128C99.5355 126.046 93.8487 111.751 100.741 114.346C106.211 116.405 100.943 124.961 110 124.961C119.057 124.961 113.789 116.405 119.259 114.346C126.125 111.761 120.353 126.087 118 128L118 129L129 129C118.704 112.629 137.465 113 149 113L149 117C145.254 117 131.636 115.003 131.636 121.05C131.636 127.081 145.231 125 149 125L151 129C150.484 126.832 148.25 112.179 153.791 114.346C157.609 115.839 156 125.777 156 129L163 129C161.826 127.133 160.21 125.158 159.629 122.995C154.975 105.673 198.413 112.633 181 128L181 129L188 129C182.859 107.345 217.016 107.873 212 129L219 129C208.704 112.629 227.465 113 239 113L239 117L222 118L222 119L237 119L237 123L222 123L222 124L239 125L239 129L241 129L241 125L260 125L260 124C255.225 122.589 249.597 124.24 245.059 122.397C241.284 120.863 240.651 116.385 244.229 114.179C249.279 111.066 262.102 111.744 265 117L247 117L247 119C254.724 119 267.781 117.395 263 129L285 129L285 117L275 117L275 113L300 113L300 117L291 117L290 129L305 129C294.704 112.629 313.465 113 325 113L325 117L308 118L308 119L323 119L323 123L308 123L308 124L325 125L325 129L331 129C320.704 112.629 339.465 113 351 113L351 117C347.254 117 333.636 115.003 333.636 121.05C333.636 127.081 347.231 125 351 125L354 129C348.859 107.345 383.016 107.873 378 129L385 129C383.826 127.133 382.21 125.158 381.629 122.995C376.975 105.673 420.413 112.633 403 128L403 129L414 129L414 128C411.794 126.251 404.751 114.207 412 114.207C415.822 114.207 414.561 121.355 416.603 123.397C421.145 127.935 428.311 122.309 432 129L437 129C435.826 127.133 434.21 125.158 433.629 122.995C428.975 105.673 472.413 112.633 455 128L455 129L465 129C454.704 112.629 473.465 113 485 113L485 117C480.606 117 473.117 115.593 469.323 118.179C461.174 123.734 477.427 125 480 125C481.334 116.442 485.354 123.234 484 129L489 129C488.484 126.832 486.25 112.179 491.791 114.346C495.609 115.839 494 125.777 494 129L500 129C489.704 112.629 508.465 113 520 113L520 117C516.254 117 502.636 115.003 502.636 121.05C502.636 127.081 516.231 125 520 125L523 129C517.859 107.345 552.016 107.873 547 129L550 125L569 125L569 124C564.225 122.589 558.597 124.24 554.059 122.397C550.284 120.863 549.651 116.385 553.229 114.179C558.279 111.066 571.102 111.744 574 117L556 117L556 119C563.724 119 576.781 117.395 572 129L576 129L576 106L18 106L18 98L576 98L576 91L575 91C568.949 95.0042 568.849 84.1265 575 89L576 89L576 0L276 0C278.219 9.31886 277.396 20.4449 276.981 29.9992C276.818 33.733 274.756 38.8043 270.107 36.1489C266.037 33.8237 265.084 27.914 263.215 24C259.461 16.1377 253.908 9.60762 245 8L245 0L239 0L239 8C230.007 9.82071 230 17.2825 230 25C229.999 41.3283 229.782 57.6734 230.004 74C230.093 80.5601 232.149 85.6052 239 87L239 95C222.821 94.9982 207.935 89.3746 199.118 75C183.116 48.9132 196.692 5.8391 229 1L208 0L164 0L10 0z"/>
<path style="fill:#0101ff; stroke:none;" d="M239 95L239 87C233.835 85.2282 230.662 81.5751 230.105 76C228.441 59.3426 229.994 41.7453 230 25C230.003 17.2186 230.754 10.8127 239 8L239 0C198.653 0.00440979 174.892 54.6637 205.174 83.6998C214.534 92.6756 226.534 95 239 95M245 0L245 8C253.333 10.452 258.907 16.3602 262.73 24C264.841 28.2184 266.186 36.7649 271.996 37.338C275.373 37.671 276.685 34.8368 276.941 31.9846C277.504 25.7265 279.91 6.56346 275.972 1.60339C272.559 -2.69511 267.524 3.08534 263.961 3.50232C257.941 4.20662 251.239 0.132889 245 0z"/>
<path style="fill:#010101; stroke:none;" d="M251 0L251 1C257.201 2.28334 264.908 6.67052 269 0L251 0z"/>
<path style="fill:#0101ff; stroke:none;" d="M10 2C10 7.94513 6.76726 29.1838 11.6034 32.9715C13.7883 34.6826 17.3283 33.7858 18.8603 31.6821C21.1767 28.5013 21.3153 23.6014 22.8796 20C25.9174 13.0065 30.9715 10.0537 31 2L10 2M36 2L36 74C35.9988 76.6719 36.5202 80.2258 34.9722 82.5818C33.312 85.1086 27.6772 85.9464 28.7515 89.8958C29.7617 93.6091 35.1039 92.994 38 93L68 93C70.7968 92.9998 77.0148 94.0724 78.338 90.6975C79.848 86.846 74.6429 85.1915 72.9375 82.7261C71.032 79.9715 71.0422 76.2086 71.0039 73C70.7209 49.3409 71 25.661 71 2L36 2M77 2C77.0284 10.0283 81.5976 13.0486 84.5208 20C86.0286 23.5855 85.9322 28.4975 88.1644 31.6821C89.9392 34.2142 94.1744 34.6129 96.3966 32.3966C101.242 27.5645 98 8.6131 98 2L77 2M146 93L146 2L115 2L104.047 3.59955L110.985 21L110.91 76L104.608 91.973L116 93L146 93M151 2L151 10C158.145 10.6238 164.658 13.4865 169.319 19.0903C172 22.3127 174.464 30.7086 179.867 29.6234C185.034 28.5857 183 16.8142 183 13L183 2L151 2z"/>
<path style="fill:#fc0202; stroke:none;" d="M330 93C330 69.339 329.721 45.6591 330.004 22C330.042 18.7914 330.032 15.0286 331.938 12.2739C333.643 9.8085 338.848 8.15407 337.338 4.30247C336.015 0.927582 329.797 2.00018 327 2L299 2C296.049 2.00018 291.009 1.12874 288.786 3.59955C285.645 7.09093 294.902 13.0591 294.995 18.0008C295.347 36.6519 295.008 55.3452 295 74C294.999 76.7033 295.5 80.208 293.973 82.6065C292.339 85.1736 285.091 87.3153 288.786 91.4012C291.161 94.0268 296.85 93 300 93L330 93M424 95L424 87C415.024 83.9209 415 76.1956 415 68C415 51.3435 414.69 34.654 415.005 18.0008C415.096 13.1779 425.177 6.13501 420.667 3.02701C413.571 -1.86246 392.571 2 384 2C381.127 2 375.021 0.902939 373.047 3.60263C370.035 7.72295 377.025 10.432 378.566 13.2238C380.74 17.161 380 22.6809 380 27L380 65C380 70.2744 378.785 77.3256 381.742 81.9853C390.339 95.5315 410.152 95 424 95M429 87L429 95C467.158 94.6799 454.718 49.4377 457.171 25C457.641 20.3129 458.853 15.6725 462.213 12.2091C464.069 10.2958 469.461 7.72478 467.824 4.30247C465.763 -0.00564575 443.221 0.742905 439.319 2.74228C434.206 5.3616 447.459 16.7863 447.906 22C449.705 43.0065 455.098 80.7981 429 87z"/>
<path style="fill:#0101ff; stroke:none;" d="M165.09 27.8511C161.565 28.9653 160.804 33.2259 159.006 35.9599C152.965 45.148 149.743 45.6747 157.611 55.1042C160.222 58.2333 162.025 66.7385 167.772 64.3773C171.194 62.9709 170.243 58.8904 170.086 56C169.655 48.0998 171.096 39.8523 170.37 32.044C170.11 29.2419 168.135 26.8885 165.09 27.8511z"/>
<path style="fill:#fc0202; stroke:none;" d="M336 85L336 93L366 93C366 84.1699 366.916 74.7886 365.891 66.0193C365.435 62.1151 362.068 59.6178 358.302 62.0285C355.268 63.9711 354.746 69.0063 353.095 72C349.4 78.6983 343.637 83.808 336 85z"/>
<path style="fill:#0101ff; stroke:none;" d="M151 85L151 93L184 93L184 82C184 78.2532 185.959 66.4256 181.686 64.6474C176.25 62.3856 173.508 70.8604 171.211 73.9853C166.37 80.5744 159.033 84.2987 151 85M245 87L245 95C255.594 94.9708 265.895 90.476 272.61 81.9961C275.074 78.8836 280.746 67.3065 272.957 66.466C268.088 65.9407 266.109 73.0056 263.66 75.9961C258.88 81.8318 252.41 85.7241 245 87z"/>
<path style="fill:#fc0202; stroke:none;" d="M486 88L483 93C497.928 91.8714 489.609 79.5855 481 76C485.811 73.4817 486.963 76.6809 491 79L491 71C487.272 71.2621 481.623 70.0701 478.38 72.1898C469.403 78.0572 480.668 85.7646 486 88M510 71C512.85 78.4375 512.345 85.4844 510 93L521 93L520 83L521 83C522.095 88.8718 526.666 98.6732 532 89L529 89L526 82C536.88 70.4739 516.616 71 510 71M548 71L548 93L557 93L559 71L548 71z"/>
<path style="fill:#010101; stroke:none;" d="M520 73L520 81L521 81L520 73z"/>
<path style="fill:#fc0202; stroke:none;" d="M476 84L475 93L482 93L476 84M562 85L558 93L565 93L565 85L562 85M500.174 86.9707C496.365 88.0224 497.905 93.896 501.725 92.3387C504.798 91.0864 503.614 86.0208 500.174 86.9707M538.174 86.9707C534.365 88.0224 535.905 93.896 539.725 92.3387C542.798 91.0864 541.614 86.0208 538.174 86.9707M571.275 86.9707C567.619 88.0369 570.022 93.8435 573.57 92.3387C576.821 90.96 574.433 86.0495 571.275 86.9707z"/>
<path style="fill:#0101ff; stroke:none;" d="M18 98L18 106L576 106L576 98L18 98M38 124L38 125L19 125L19 129C24.6041 129 35.9094 131.165 40.6821 127.972C43.775 125.903 43.164 121.05 39.8519 119.603C35.7803 117.825 29.3808 119 25 119L25 117L43 117C41.1738 111.498 24.7582 110.685 20.7431 114.742C15.7857 119.752 22.8509 122.916 27 122.995C30.7965 123.068 34.29 123.117 38 124M50.044 113.742C44.6208 115.952 43.3521 123.811 48.1481 127.397C51.8566 130.169 62.7214 130.051 66.8912 128.258C72.0989 126.018 72.1614 117.896 67.8519 114.742C64.0561 111.964 54.305 112.006 50.044 113.742M96 129C93.9476 122.816 87.8895 126.348 83.0586 124.397C78.173 122.424 80.7671 115.047 76.7407 113.752C70.9109 111.875 73.3286 124.461 75.4336 126.566C79.8682 131.001 90.2493 129 96 129M98.5841 114.086C94.8892 116.681 97.3232 125.062 100.228 127.258C104.145 130.217 115.828 130.292 119.721 127.258C122.384 125.183 125.356 111.789 119.259 113.752C114.06 115.425 118.66 124.883 110 124.883C103.867 124.883 102.133 111.594 98.5841 114.086M149 129L149 125C145.415 125 132.207 126.897 132.207 121.05C132.207 115.203 145.437 117 149 117L149 113C143.282 113 134.229 111.297 129.109 114.179C123.965 117.074 123.813 125.1 129.059 127.972C134.133 130.752 143.34 129 149 129M156 129L156 121.998C155.959 102.406 141.953 127.906 156 129M164.044 113.742C158.621 115.952 157.352 123.811 162.148 127.397C165.857 130.169 176.721 130.051 180.891 128.258C186.099 126.018 186.161 117.896 181.852 114.742C178.056 111.964 168.305 112.006 164.044 113.742M207 129C213.883 128.464 215.059 120.365 210.347 115.653C203.169 108.475 181.154 113.6 187.603 126.677C188.465 128.426 190.643 129 191.977 127.377C193.799 125.16 192.566 121.766 194.603 119.514C202.21 111.109 206.995 122.926 207 129M239 129L239 125L222 124L222 123L237 123L237 119L222 119L222 118L239 117L239 113C233.282 113 224.229 111.297 219.109 114.179C213.965 117.074 213.813 125.099 219.059 127.972C224.133 130.752 233.34 129 239 129M260 124L260 125L241 125L241 129C246.604 129 257.909 131.165 262.682 127.972C265.775 125.903 265.164 121.05 261.852 119.603C257.78 117.825 251.381 119 247 119L247 117L265 117C263.174 111.498 246.758 110.685 242.743 114.742C237.786 119.752 244.851 122.916 249 122.995C252.797 123.068 256.29 123.117 260 124M275 113L275 117L285 117L285 129C292.149 128.443 291 122.821 291 117L300 117L300 113L275 113M325 129L325 125L308 124L308 123L323 123L323 119L308 119L308 118L325 117L325 113C319.282 113 310.229 111.297 305.109 114.179C299.965 117.074 299.813 125.1 305.059 127.972C310.133 130.752 319.34 129 325 129M351 129L351 125C347.415 125 334.207 126.897 334.207 121.05C334.207 115.203 347.437 117 351 117L351 113C345.282 113 336.229 111.297 331.109 114.179C325.965 117.074 325.813 125.1 331.059 127.972C336.133 130.752 345.34 129 351 129M373 129C379.883 128.464 381.059 120.365 376.347 115.653C369.169 108.475 347.154 113.6 353.603 126.677C354.465 128.426 356.643 129 357.977 127.377C359.799 125.16 358.566 121.765 360.603 119.514C368.21 111.109 372.995 122.926 373 129M386.044 113.742C380.621 115.952 379.352 123.811 384.148 127.397C387.857 130.169 398.721 130.051 402.891 128.258C408.099 126.018 408.161 117.896 403.852 114.742C400.056 111.964 390.305 112.006 386.044 113.742M432 129C429.948 122.816 423.889 126.348 419.059 124.397C414.173 122.424 416.767 115.047 412.741 113.752C406.911 111.875 409.329 124.461 411.434 126.566C415.868 131.001 426.249 129 432 129M438.044 113.742C432.621 115.952 431.352 123.811 436.148 127.397C439.857 130.169 450.721 130.051 454.891 128.258C460.099 126.018 460.161 117.896 455.852 114.742C452.056 111.964 442.305 112.006 438.044 113.742M480 125C477.229 125 461.963 123.278 470.167 118.179C474.006 115.793 480.66 117 485 117L485 113L474 113C471.717 113.004 469.238 112.806 467.015 113.434C460.995 115.134 458.907 123.478 464.148 127.397C467.683 130.039 473.841 129.074 477.999 128.995C482.177 128.916 487.112 126.709 484.4 121.478C482.151 117.138 480.149 123.129 480 125M494 129L494 121.998C493.959 102.406 479.953 127.906 494 129M520 129L520 125C516.415 125 503.207 126.897 503.207 121.05C503.207 115.203 516.437 117 520 117L520 113C514.282 113 505.229 111.297 500.109 114.179C494.965 117.074 494.813 125.1 500.059 127.972C505.133 130.752 514.34 129 520 129M528 125L542 125L542 129C548.883 128.464 550.059 120.365 545.347 115.653C537.822 108.128 520.268 112.919 522.152 124.941C522.9 129.713 526.767 128.711 528 125M569 124L569 125L550 125L550 129C555.604 129 566.909 131.165 571.682 127.972C574.775 125.903 574.164 121.05 570.852 119.603C566.78 117.825 560.381 119 556 119L556 117L574 117C572.174 111.498 555.758 110.685 551.743 114.742C546.786 119.752 553.851 122.916 558 122.995C561.796 123.068 565.29 123.117 569 124z"/>
<path style="fill:#010101; stroke:none;" d="M54.1489 117.742C46.3157 121.295 57.7747 126.634 62.767 124.258C69.9521 120.838 58.7068 115.675 54.1489 117.742M168.149 117.742C160.316 121.295 171.775 126.634 176.767 124.258C183.952 120.838 172.707 115.675 168.149 117.742M192 129L207 129C206.999 123.105 201.198 109.514 194.028 119.514C192.344 121.862 192.665 126.208 192 129M358 129L373 129C372.999 123.105 367.198 109.514 360.028 119.514C358.344 121.862 358.665 126.208 358 129M390.149 117.742C382.316 121.295 393.775 126.634 398.767 124.258C405.952 120.838 394.707 115.675 390.149 117.742M442.149 117.742C434.316 121.295 445.775 126.634 450.767 124.258C457.952 120.838 446.707 115.675 442.149 117.742M528 121L542 121C538.859 115.866 531.141 115.866 528 121M528 125L527 129L542 129L542 125L528 125z"/>
<path style="fill:#fc0202; stroke:none;" d="M43 138L43 139L535 139C525.205 156.211 528 175.876 528 195L560 195C560 173.817 567.037 158.408 575 139C559.462 134.407 538.218 138 522 138L410 138L43 138z"/>
<path style="fill:#0101ff; stroke:none;" d="M0 139L0 195L20 195L31.6103 165L32 139L0 139z"/>
<path style="fill:#3d3737; stroke:none;" d="M32 139L31.3657 165L20 195L480 195C480 173.817 487.037 158.408 495 139L32 139z"/>
<path style="fill:#0101ff; stroke:none;" d="M480 195L528 195C528 174.708 527.223 157.956 535 139C524.421 139 505.895 135.374 496.214 139.603C491.667 141.59 490.105 149.804 488.397 154C482.45 168.607 480 179.227 480 195z"/>
<path style="fill:#fc0202; stroke:none;" d="M90 153.468C80.2418 155.36 78.9967 162.417 79 171C79.0012 174.024 78.077 179.796 82.1289 180.623C89.3248 182.093 85.3177 163.671 93.0154 160.746C109.427 154.51 100.514 180.704 109 180.704C116.945 180.704 109.22 161.69 121.001 160.272C135.22 158.561 127.03 182.429 135.871 180.623C143.507 179.064 138.426 158.791 133.956 155.728C125.573 149.982 117.583 155.4 109 155.4C102.405 155.4 96.9709 152.117 90 153.468M166 153.468C154.581 155.626 147.995 169.147 158.105 177.581C164.452 182.877 179.243 182.159 187 180.66C197.731 178.586 201.851 164.888 193.786 157.279C187.576 151.419 173.839 151.986 166 153.468M252 167C262.452 149.857 225.537 149.495 216.148 153.742C211.597 155.801 213 162.964 213 167C213 170.503 211.869 176.663 214.603 179.397C216.859 181.652 221.114 180.999 224 181C231.496 181.003 246.578 183.851 252.852 179.258C257.663 175.736 255.686 170.253 252 167M272.143 153.851C266.37 155.741 266.722 183.113 274.857 180.338C280.537 178.4 280.432 151.138 272.143 153.851M295.313 154.086C290.2 156.977 292.782 172.158 295.653 175.892C300.033 181.59 323.553 184.857 329.377 179.973C331.929 177.833 329.256 174.954 326.941 174.318C319.001 172.136 305.717 178.204 301.742 167.995C300.372 164.476 301.661 160.616 300.682 157.059C300.035 154.706 297.824 152.667 295.313 154.086M347.143 153.851C341.37 155.741 341.722 183.113 349.857 180.338C355.537 178.4 355.432 151.138 347.143 153.851M383 160C383 163.229 381.176 186.303 389.397 179.968C393.162 177.066 391 164.369 391 160C393.141 160 414.682 159.779 406.663 154.178C400.927 150.172 385.831 153 379 153C377.018 153 360.637 153.444 367.608 158.976C370.857 161.554 379.039 160 383 160M437 173C437.113 182.514 444.887 182.514 445 173C450.994 172.876 457.756 171.922 460.821 165.985C462.207 163.299 463.493 155.259 459.687 153.851C454.199 151.821 453.605 161.051 450.772 163.566C447.399 166.561 442.211 166.173 438 165.96C428.306 165.469 430.406 154.351 423.985 153.662C417.062 152.919 419.095 163.594 421.228 166.895C424.616 172.137 431.295 172.882 437 173z"/>
<path style="fill:#3d3737; stroke:none;" d="M167.019 160.742C162.121 162.698 160.186 169.737 165.228 172.821C169.217 175.26 180.693 175.036 184.941 173.258C189.755 171.243 190.216 164.174 185.772 161.457C181.642 158.932 171.451 158.973 167.019 160.742M222 160L222 164L246 163L246 161L222 160M222 171L222 174L247 174L247 171L222 171z"/>
</svg>
